<svg width="225" height="124" viewBox="0 0 225 124" fill="none" xmlns="http://www.w3.org/2000/svg">
<g clip-path="url(#clip0_1374_35)">
<g filter="url(#filter0_d_1374_35)">
<rect x="2.5" y="13" width="210.5" height="100" rx="40" fill="#E8E8E8"/>
</g>
<circle cx="51.9121" cy="63" r="25" fill="#006E75" fill-opacity="0.5" stroke="#006E75" stroke-width="10"/>
<g clip-path="url(#clip1_1374_35)">
<path d="M169.999 83.4168C170.773 83.4168 171.515 83.7241 172.062 84.2711C172.609 84.8181 172.916 85.5599 172.916 86.3335V89.2502C172.916 90.0237 172.609 90.7656 172.062 91.3126C171.515 91.8595 170.773 92.1668 169.999 92.1668C169.226 92.1668 168.484 91.8595 167.937 91.3126C167.39 90.7656 167.083 90.0237 167.083 89.2502V86.3335C167.083 85.5599 167.39 84.8181 167.937 84.2711C168.484 83.7241 169.226 83.4168 169.999 83.4168ZM188.561 77.4377L190.623 79.4997C191.154 80.0498 191.448 80.7866 191.442 81.5513C191.435 82.3161 191.128 83.0476 190.588 83.5884C190.047 84.1292 189.315 84.4359 188.551 84.4425C187.786 84.4492 187.049 84.1552 186.499 83.6239L184.437 81.5618C183.906 81.0117 183.612 80.275 183.618 79.5102C183.625 78.7455 183.932 78.014 184.472 77.4732C185.013 76.9324 185.745 76.6257 186.509 76.619C187.274 76.6124 188.011 76.9064 188.561 77.4377ZM151.438 77.4377C151.963 76.9146 152.667 76.6109 153.408 76.5882C154.148 76.5656 154.87 76.8258 155.426 77.3159C155.981 77.806 156.33 78.4893 156.4 79.227C156.47 79.9647 156.257 80.7014 155.804 81.2877L155.562 81.5618L153.5 83.6239C152.975 84.147 152.271 84.4507 151.53 84.4733C150.789 84.4959 150.068 84.2358 149.512 83.7457C148.956 83.2556 148.608 82.5723 148.537 81.8346C148.467 81.0969 148.68 80.3601 149.134 79.7739L149.376 79.4997L151.438 77.4377ZM169.999 45.5002C174.641 45.5002 179.092 47.3439 182.374 50.6258C185.656 53.9077 187.499 58.3589 187.499 63.0002C187.499 67.6414 185.656 72.0926 182.374 75.3745C179.092 78.6564 174.641 80.5002 169.999 80.5002C165.358 80.5002 160.907 78.6564 157.625 75.3745C154.343 72.0926 152.499 67.6414 152.499 63.0002C152.499 58.3589 154.343 53.9077 157.625 50.6258C160.907 47.3439 165.358 45.5002 169.999 45.5002ZM169.999 51.3335C166.905 51.3335 163.938 52.5627 161.75 54.7506C159.562 56.9385 158.333 59.906 158.333 63.0002C158.333 66.0944 159.562 69.0618 161.75 71.2497C163.938 73.4377 166.905 74.6668 169.999 74.6668C173.094 74.6668 176.061 73.4377 178.249 71.2497C180.437 69.0618 181.666 66.0944 181.666 63.0002C181.666 59.906 180.437 56.9385 178.249 54.7506C176.061 52.5627 173.094 51.3335 169.999 51.3335ZM146.666 60.0835C147.409 60.0843 148.124 60.369 148.665 60.8793C149.206 61.3896 149.531 62.0871 149.574 62.8292C149.618 63.5714 149.377 64.3021 148.899 64.8722C148.422 65.4422 147.745 65.8086 147.007 65.8964L146.666 65.9168H143.749C143.006 65.916 142.291 65.6313 141.75 65.121C141.21 64.6107 140.885 63.9132 140.841 63.1711C140.797 62.429 141.039 61.6982 141.516 61.1282C141.993 60.5581 142.67 60.1917 143.408 60.1039L143.749 60.0835H146.666ZM196.249 60.0835C197.023 60.0835 197.765 60.3908 198.312 60.9378C198.859 61.4847 199.166 62.2266 199.166 63.0002C199.166 63.7737 198.859 64.5156 198.312 65.0626C197.765 65.6095 197.023 65.9168 196.249 65.9168H193.333C192.559 65.9168 191.817 65.6095 191.27 65.0626C190.723 64.5156 190.416 63.7737 190.416 63.0002C190.416 62.2266 190.723 61.4847 191.27 60.9378C191.817 60.3908 192.559 60.0835 193.333 60.0835H196.249ZM149.376 42.3764C149.878 41.8742 150.546 41.5726 151.255 41.528C151.964 41.4834 152.664 41.699 153.226 42.1343L153.5 42.3764L155.562 44.4385C156.085 44.9634 156.389 45.6677 156.411 46.4084C156.434 47.1491 156.174 47.8706 155.684 48.4264C155.194 48.9822 154.51 49.3306 153.773 49.4009C153.035 49.4712 152.298 49.258 151.712 48.8047L151.438 48.5627L149.376 46.5006C148.829 45.9536 148.522 45.2119 148.522 44.4385C148.522 43.6651 148.829 42.9234 149.376 42.3764ZM190.623 42.3764C191.17 42.9234 191.477 43.6651 191.477 44.4385C191.477 45.2119 191.17 45.9536 190.623 46.5006L188.561 48.5627C188.292 48.8412 187.97 49.0634 187.614 49.2163C187.258 49.3692 186.876 49.4496 186.488 49.453C186.101 49.4563 185.717 49.3825 185.359 49.2359C185 49.0892 184.675 48.8727 184.401 48.5988C184.127 48.325 183.91 47.9993 183.764 47.6409C183.617 47.2824 183.543 46.8983 183.547 46.5111C183.55 46.1238 183.63 45.7411 183.783 45.3852C183.936 45.0294 184.158 44.7075 184.437 44.4385L186.499 42.3764C187.046 41.8296 187.788 41.5225 188.561 41.5225C189.334 41.5225 190.076 41.8296 190.623 42.3764ZM169.999 33.8335C170.773 33.8335 171.515 34.1408 172.062 34.6878C172.609 35.2347 172.916 35.9766 172.916 36.7502V39.6668C172.916 40.4404 172.609 41.1822 172.062 41.7292C171.515 42.2762 170.773 42.5835 169.999 42.5835C169.226 42.5835 168.484 42.2762 167.937 41.7292C167.39 41.1822 167.083 40.4404 167.083 39.6668V36.7502C167.083 35.9766 167.39 35.2347 167.937 34.6878C168.484 34.1408 169.226 33.8335 169.999 33.8335Z" fill="#006E75"/>
</g>
</g>
<defs>
<filter id="filter0_d_1374_35" x="-1.5" y="13" width="218.5" height="108" filterUnits="userSpaceOnUse" color-interpolation-filters="sRGB">
<feFlood flood-opacity="0" result="BackgroundImageFix"/>
<feColorMatrix in="SourceAlpha" type="matrix" values="0 0 0 0 0 0 0 0 0 0 0 0 0 0 0 0 0 0 127 0" result="hardAlpha"/>
<feOffset dy="4"/>
<feGaussianBlur stdDeviation="2"/>
<feComposite in2="hardAlpha" operator="out"/>
<feColorMatrix type="matrix" values="0 0 0 0 0 0 0 0 0 0 0 0 0 0 0 0 0 0 0.25 0"/>
<feBlend mode="normal" in2="BackgroundImageFix" result="effect1_dropShadow_1374_35"/>
<feBlend mode="normal" in="SourceGraphic" in2="effect1_dropShadow_1374_35" result="shape"/>
</filter>
<clipPath id="clip0_1374_35">
<rect width="225" height="124" fill="white"/>
</clipPath>
<clipPath id="clip1_1374_35">
<rect width="70" height="70" fill="white" transform="translate(135 28)"/>
</clipPath>
</defs>
</svg>
